<svg width="16" height="16" viewBox="0 0 16 16" fill="none" xmlns="http://www.w3.org/2000/svg">
<path d="M5.80683 5.13992L7.3335 3.60659V9.99992C7.3335 10.1767 7.40373 10.3463 7.52876 10.4713C7.65378 10.5963 7.82335 10.6666 8.00016 10.6666C8.17697 10.6666 8.34654 10.5963 8.47157 10.4713C8.59659 10.3463 8.66683 10.1767 8.66683 9.99992V3.60659L10.1935 5.13992C10.2555 5.20241 10.3292 5.252 10.4104 5.28585C10.4917 5.31969 10.5788 5.33712 10.6668 5.33712C10.7548 5.33712 10.842 5.31969 10.9232 5.28585C11.0045 5.252 11.0782 5.20241 11.1402 5.13992C11.2026 5.07795 11.2522 5.00421 11.2861 4.92297C11.3199 4.84173 11.3374 4.7546 11.3374 4.66659C11.3374 4.57858 11.3199 4.49144 11.2861 4.4102C11.2522 4.32896 11.2026 4.25523 11.1402 4.19325L8.4735 1.52659C8.41009 1.46589 8.33533 1.41832 8.2535 1.38659C8.09119 1.31991 7.90914 1.31991 7.74683 1.38659C7.665 1.41832 7.59023 1.46589 7.52683 1.52659L4.86016 4.19325C4.798 4.25541 4.7487 4.32921 4.71506 4.41042C4.68142 4.49164 4.6641 4.57868 4.6641 4.66659C4.6641 4.75449 4.68142 4.84154 4.71506 4.92275C4.7487 5.00397 4.798 5.07776 4.86016 5.13992C4.92232 5.20208 4.99612 5.25139 5.07733 5.28503C5.15854 5.31867 5.24559 5.33598 5.3335 5.33598C5.4214 5.33598 5.50845 5.31867 5.58966 5.28503C5.67088 5.25139 5.74467 5.20208 5.80683 5.13992ZM14.0002 7.99992C13.8234 7.99992 13.6538 8.07016 13.5288 8.19518C13.4037 8.32021 13.3335 8.48978 13.3335 8.66659V12.6666C13.3335 12.8434 13.2633 13.013 13.1382 13.138C13.0132 13.263 12.8436 13.3333 12.6668 13.3333H3.3335C3.15669 13.3333 2.98712 13.263 2.86209 13.138C2.73707 13.013 2.66683 12.8434 2.66683 12.6666V8.66659C2.66683 8.48978 2.59659 8.32021 2.47157 8.19518C2.34654 8.07016 2.17697 7.99992 2.00016 7.99992C1.82335 7.99992 1.65378 8.07016 1.52876 8.19518C1.40373 8.32021 1.3335 8.48978 1.3335 8.66659V12.6666C1.3335 13.197 1.54421 13.7057 1.91928 14.0808C2.29436 14.4559 2.80306 14.6666 3.3335 14.6666H12.6668C13.1973 14.6666 13.706 14.4559 14.081 14.0808C14.4561 13.7057 14.6668 13.197 14.6668 12.6666V8.66659C14.6668 8.48978 14.5966 8.32021 14.4716 8.19518C14.3465 8.07016 14.177 7.99992 14.0002 7.99992Z" fill="#0061FF"/>
</svg>
