<svg width="151" height="24" viewBox="0 0 151 24" fill="none" xmlns="http://www.w3.org/2000/svg">
<path d="M107.669 23.0784C107.669 23.5874 108.082 24 108.591 24C109.1 24 109.512 23.5874 109.512 23.0784V0.921587C109.512 0.412608 109.1 0 108.591 0C108.082 0 107.669 0.412609 107.669 0.921587V23.0784Z" fill="#75839D"/>
<path d="M85.5505 7.74008C85.5505 8.56349 86.218 9.231 87.0415 9.231H102.491C103.315 9.231 103.982 8.56349 103.982 7.74008V7.02962C103.982 6.20621 103.315 5.5387 102.491 5.5387L87.0415 5.5387C86.218 5.5387 85.5505 6.20621 85.5505 7.02962V7.74008Z" fill="#75839D"/>
<path d="M92.9238 16.9708C92.9238 17.7942 93.5913 18.4617 94.4148 18.4617H102.492C103.315 18.4617 103.983 17.7942 103.983 16.9708V16.2603C103.983 15.4369 103.315 14.7694 102.492 14.7694H94.4148C93.5913 14.7694 92.9238 15.4369 92.9238 16.2603V16.9708Z" fill="#75839D"/>
<path d="M1.84326 23.0784C1.84326 23.5874 1.43065 24 0.921674 24C0.412695 24 8.59499e-05 23.5874 8.59499e-05 23.0784L8.59499e-05 0.921587C8.59499e-05 0.412608 0.412695 0 0.921674 0C1.43065 0 1.84326 0.412609 1.84326 0.921587L1.84326 23.0784Z" fill="#75839D"/>
<path d="M23.9619 7.74008C23.9619 8.56349 23.2944 9.231 22.471 9.231H7.02108C6.19767 9.231 5.53016 8.56349 5.53016 7.74008V7.02962C5.53016 6.20621 6.19767 5.5387 7.02109 5.5387L22.471 5.5387C23.2944 5.5387 23.9619 6.20621 23.9619 7.02962V7.74008Z" fill="#75839D"/>
<path d="M16.5886 16.9708C16.5886 17.7942 15.9211 18.4617 15.0977 18.4617H7.0205C6.19708 18.4617 5.52957 17.7942 5.52957 16.9708V16.2603C5.52957 15.4369 6.19708 14.7694 7.02049 14.7694H15.0977C15.9211 14.7694 16.5886 15.4369 16.5886 16.2603V16.9708Z" fill="#75839D"/>
<path d="M44.72 7.02962C44.72 6.20621 45.3875 5.5387 46.2109 5.5387L63.504 5.5387C64.3274 5.5387 64.9949 6.20621 64.9949 7.02962V7.74008C64.9949 8.56349 64.3274 9.231 63.504 9.231H46.2109C45.3875 9.231 44.72 8.56349 44.72 7.74008V7.02962Z" fill="#75839D"/>
<rect x="48.4072" y="14.7694" width="12.9022" height="3.69231" rx="1.49092" fill="#75839D"/>
<path d="M53.9363 0.921587C53.9363 0.412608 54.3489 0 54.8579 0C55.3668 0 55.7795 0.412609 55.7795 0.921587V23.0784C55.7795 23.5874 55.3668 24 54.8579 24C54.3489 24 53.9363 23.5874 53.9363 23.0784V0.921587Z" fill="#75839D"/>
<path d="M130.271 7.0295C130.271 6.20608 130.938 5.53857 131.761 5.53857L149.055 5.53857C149.878 5.53857 150.545 6.20608 150.545 7.0295V7.73996C150.545 8.56337 149.878 9.23088 149.055 9.23088H131.761C130.938 9.23088 130.271 8.56337 130.271 7.73996V7.0295Z" fill="#75839D"/>
<rect x="130.271" y="14.5237" width="20.0243" height="4.14965" rx="1.49092" fill="#75839D"/>
</svg>
