<svg width="24" height="24" viewBox="0 0 24 24" fill="none" xmlns="http://www.w3.org/2000/svg">
<path d="M20.0691 4.0858L20.1605 4.2767L20.3612 4.34399C21.074 4.58302 21.6782 5.06835 22.0653 5.71283C22.4525 6.3573 22.5971 7.11869 22.4734 7.86024C22.3496 8.6018 21.9655 9.27493 21.3901 9.75875C20.8146 10.2426 20.0855 10.5054 19.3337 10.4999H19.3301H12.0001C11.3371 10.4999 10.7012 10.2365 10.2323 9.7677C9.76384 9.29919 9.50049 8.66387 9.50012 8.00134C9.50418 7.38519 9.73564 6.79222 10.1501 6.33625L10.9103 5.49994H9.78012H7.00012C6.60229 5.49994 6.22076 5.65797 5.93946 5.93928C5.65815 6.22058 5.50012 6.60211 5.50012 6.99994V10.9999C5.50012 11.1325 5.44744 11.2597 5.35367 11.3535C5.2599 11.4473 5.13272 11.4999 5.00012 11.4999C4.86751 11.4999 4.74033 11.4473 4.64656 11.3535C4.55279 11.2597 4.50012 11.1325 4.50012 10.9999V6.99994C4.50012 6.3369 4.76351 5.70101 5.23235 5.23217C5.70119 4.76333 6.33707 4.49994 7.00012 4.49994H11.4401H11.7652L11.8971 4.2028C12.246 3.41691 12.8127 2.74741 13.5302 2.27356C14.2477 1.79971 15.0859 1.54134 15.9457 1.52903C16.8054 1.51672 17.6507 1.75098 18.3815 2.2041C19.1122 2.65722 19.6979 3.31021 20.0691 4.0858ZM19.3146 4.84211L19.3135 4.83892C19.0453 4.05064 18.505 3.38377 17.7894 2.95806C17.0738 2.53235 16.2299 2.3757 15.4092 2.51623C14.5885 2.65676 13.8448 3.08526 13.3116 3.7248C12.7792 4.36346 12.4915 5.17077 12.5001 6.00214C12.4995 6.13395 12.4469 6.26024 12.3537 6.35349C12.2599 6.44726 12.1327 6.49994 12.0001 6.49994C11.6023 6.49994 11.2208 6.65797 10.9395 6.93928C10.6582 7.22058 10.5001 7.60211 10.5001 7.99994C10.5001 8.39776 10.6582 8.77929 10.9395 9.0606C11.2208 9.3419 11.6023 9.49994 12.0001 9.49994H19.3301C19.6151 9.49994 19.8973 9.44381 20.1605 9.33476C20.4238 9.2257 20.663 9.06586 20.8645 8.86436C21.066 8.66286 21.2259 8.42364 21.3349 8.16036C21.4434 7.89858 21.4995 7.61811 21.5001 7.3348C21.509 6.8201 21.3329 6.31924 21.0037 5.92331C20.6738 5.52648 20.2122 5.26155 19.7032 5.17688C19.6145 5.16143 19.5315 5.12229 19.4632 5.06359C19.3945 5.00458 19.3431 4.92804 19.3146 4.84211ZM14.2744 18.1818L14.3986 18.4999H14.7401H17.0001C17.3979 18.4999 17.7795 18.3419 18.0608 18.0606C18.3421 17.7793 18.5001 17.3978 18.5001 16.9999V13.9999C18.5001 13.8673 18.5528 13.7402 18.6466 13.6464C18.7403 13.5526 18.8675 13.4999 19.0001 13.4999C19.1327 13.4999 19.2599 13.5526 19.3537 13.6464C19.4474 13.7402 19.5001 13.8673 19.5001 13.9999V16.9999C19.5001 17.663 19.2367 18.2989 18.7679 18.7677C18.299 19.2365 17.6632 19.4999 17.0001 19.4999H14.9301H14.5134L14.4383 19.9098C14.305 20.6369 13.921 21.2943 13.3531 21.7675C12.7852 22.2408 12.0694 22.4999 11.3301 22.4999L4.00124 22.4999C4.00097 22.4999 4.00071 22.4999 4.00044 22.4999C3.40668 22.4984 2.83283 22.2856 2.38164 21.8996C1.93024 21.5134 1.63111 20.9791 1.53785 20.3925C1.44458 19.8058 1.56327 19.2051 1.87265 18.6979C2.18204 18.1908 2.66189 17.8104 3.22624 17.6249L3.51166 17.5311L3.56282 17.2351C3.72572 16.2922 4.18489 15.4259 4.87367 14.7618C5.56245 14.0977 6.44497 13.6704 7.3931 13.542C8.34124 13.4135 9.30563 13.5907 10.1463 14.0476C10.9869 14.5046 11.66 15.2176 12.0678 16.0831L12.1579 16.2742L12.3577 16.3428C12.7915 16.4919 13.1876 16.7336 13.5186 17.0511C13.8496 17.3687 14.1075 17.7545 14.2744 18.1818ZM11.3146 16.8421L11.3146 16.8421L11.3135 16.8389C11.0453 16.0506 10.505 15.3838 9.78939 14.9581C9.07381 14.5324 8.2299 14.3757 7.40921 14.5162C6.58851 14.6568 5.8448 15.0853 5.31163 15.7248C4.77918 16.3635 4.49152 17.1708 4.50011 18.0022C4.49952 18.134 4.44691 18.2603 4.35367 18.3535C4.2599 18.4473 4.13272 18.4999 4.00012 18.4999C3.60229 18.4999 3.22076 18.658 2.93946 18.9393C2.65815 19.2206 2.50012 19.6021 2.50012 19.9999C2.50012 20.3978 2.65815 20.7793 2.93946 21.0606C3.22076 21.3419 3.60229 21.4999 4.00012 21.4999H11.3301C11.6151 21.4999 11.8973 21.4438 12.1605 21.3348C12.4238 21.2257 12.663 21.0659 12.8645 20.8644C13.066 20.6629 13.2259 20.4236 13.3349 20.1604C13.4434 19.8986 13.4995 19.6181 13.5001 19.3348C13.509 18.8201 13.3329 18.3192 13.0037 17.9233C12.6738 17.5265 12.2122 17.2616 11.7032 17.1769C11.6145 17.1614 11.5315 17.1223 11.4632 17.0636C11.3945 17.0046 11.3431 16.928 11.3146 16.8421Z" fill="#0061FF" stroke="#0061FF"/>
</svg>
