<svg width="32" height="32" viewBox="0 0 32 32" fill="none" xmlns="http://www.w3.org/2000/svg">
<path d="M10.9065 5.33325H3.99984C3.64622 5.33325 3.30708 5.47372 3.05703 5.72377C2.80698 5.97382 2.6665 6.31296 2.6665 6.66658C2.6665 7.0202 2.80698 7.35934 3.05703 7.60939C3.30708 7.85944 3.64622 7.99991 3.99984 7.99991H10.9065C11.1868 8.77212 11.698 9.4393 12.3707 9.91079C13.0434 10.3823 13.845 10.6352 14.6665 10.6352C15.488 10.6352 16.2896 10.3823 16.9623 9.91079C17.635 9.4393 18.1462 8.77212 18.4265 7.99991H27.9998C28.3535 7.99991 28.6926 7.85944 28.9426 7.60939C29.1927 7.35934 29.3332 7.0202 29.3332 6.66658C29.3332 6.31296 29.1927 5.97382 28.9426 5.72377C28.6926 5.47372 28.3535 5.33325 27.9998 5.33325H18.4265C18.1462 4.56104 17.635 3.89386 16.9623 3.42237C16.2896 2.95088 15.488 2.69794 14.6665 2.69794C13.845 2.69794 13.0434 2.95088 12.3707 3.42237C11.698 3.89386 11.1868 4.56104 10.9065 5.33325ZM15.9998 6.66658C15.9998 6.93029 15.9216 7.18807 15.7751 7.40734C15.6286 7.62661 15.4204 7.7975 15.1767 7.89842C14.9331 7.99933 14.665 8.02574 14.4064 7.97429C14.1477 7.92285 13.9102 7.79586 13.7237 7.60939C13.5372 7.42292 13.4102 7.18534 13.3588 6.9267C13.3073 6.66806 13.3337 6.39997 13.4347 6.15634C13.5356 5.9127 13.7065 5.70446 13.9257 5.55795C14.145 5.41144 14.4028 5.33325 14.6665 5.33325C15.0201 5.33325 15.3593 5.47372 15.6093 5.72377C15.8594 5.97382 15.9998 6.31296 15.9998 6.66658ZM18.9065 14.6666L3.99984 14.6666C3.64622 14.6666 3.30708 14.8071 3.05703 15.0571C2.80698 15.3072 2.6665 15.6463 2.6665 15.9999C2.6665 16.3535 2.80698 16.6927 3.05703 16.9427C3.30708 17.1928 3.64622 17.3332 3.99984 17.3332H18.9065C19.1868 18.1054 19.698 18.7726 20.3707 19.2441C21.0434 19.7156 21.845 19.9685 22.6665 19.9685C23.488 19.9685 24.2896 19.7156 24.9623 19.2441C25.635 18.7726 26.1462 18.1054 26.4265 17.3332H27.9998C28.3535 17.3332 28.6926 17.1928 28.9426 16.9427C29.1927 16.6927 29.3332 16.3535 29.3332 15.9999C29.3332 15.6463 29.1927 15.3072 28.9426 15.0571C28.6926 14.8071 28.3535 14.6666 27.9998 14.6666H26.4265C26.1462 13.8944 25.635 13.2272 24.9623 12.7557C24.2896 12.2842 23.488 12.0313 22.6665 12.0313C21.845 12.0313 21.0434 12.2842 20.3707 12.7557C19.698 13.2272 19.1868 13.8944 18.9065 14.6666ZM23.9998 15.9999C23.9998 16.2636 23.9216 16.5214 23.7751 16.7407C23.6286 16.9599 23.4204 17.1308 23.1767 17.2318C22.9331 17.3327 22.665 17.3591 22.4064 17.3076C22.1477 17.2562 21.9102 17.1292 21.7237 16.9427C21.5372 16.7563 21.4102 16.5187 21.3588 16.26C21.3073 16.0014 21.3337 15.7333 21.4347 15.4897C21.5356 15.246 21.7065 15.0378 21.9257 14.8913C22.145 14.7448 22.4028 14.6666 22.6665 14.6666C23.0201 14.6666 23.3593 14.8071 23.6093 15.0571C23.8594 15.3072 23.9998 15.6463 23.9998 15.9999ZM8.23984 23.9999H3.99984C3.64622 23.9999 3.30708 24.1404 3.05703 24.3904C2.80698 24.6405 2.6665 24.9796 2.6665 25.3332C2.6665 25.6869 2.80698 26.026 3.05703 26.2761C3.30708 26.5261 3.64622 26.6666 3.99984 26.6666H8.23984C8.52011 27.4388 9.03134 28.106 9.70406 28.5775C10.3768 29.0489 11.1783 29.3019 11.9998 29.3019C12.8213 29.3019 13.6229 29.0489 14.2956 28.5775C14.9683 28.106 15.4796 27.4388 15.7598 26.6666H27.9998C28.3535 26.6666 28.6926 26.5261 28.9426 26.2761C29.1927 26.026 29.3332 25.6869 29.3332 25.3332C29.3332 24.9796 29.1927 24.6405 28.9426 24.3904C28.6926 24.1404 28.3535 23.9999 27.9998 23.9999H15.7598C15.4796 23.2277 14.9683 22.5605 14.2956 22.089C13.6229 21.6175 12.8213 21.3646 11.9998 21.3646C11.1783 21.3646 10.3768 21.6175 9.70406 22.089C9.03134 22.5605 8.52011 23.2277 8.23984 23.9999ZM13.3332 25.3332C13.3332 25.597 13.255 25.8547 13.1085 26.074C12.962 26.2933 12.7537 26.4642 12.5101 26.5651C12.2664 26.666 11.9984 26.6924 11.7397 26.641C11.4811 26.5895 11.2435 26.4625 11.057 26.2761C10.8706 26.0896 10.7436 25.852 10.6921 25.5934C10.6407 25.3347 10.6671 25.0666 10.768 24.823C10.8689 24.5794 11.0398 24.3711 11.2591 24.2246C11.4783 24.0781 11.7361 23.9999 11.9998 23.9999C12.3535 23.9999 12.6926 24.1404 12.9426 24.3904C13.1927 24.6405 13.3332 24.9796 13.3332 25.3332Z" fill="#75839D"/>
</svg>
