<svg width="32" height="32" viewBox="0 0 32 32" fill="none" xmlns="http://www.w3.org/2000/svg">
<path d="M21.3332 7.86666C21.3332 7.06666 20.7998 6.53333 19.9998 6.53333H3.99984C3.19984 6.53333 2.6665 7.06666 2.6665 7.86666C2.6665 8.66666 3.19984 9.19999 3.99984 9.19999H10.6665V23.8667C10.6665 24.6667 11.1998 25.2 11.9998 25.2C12.7998 25.2 13.3332 24.6667 13.3332 23.8667V9.19999H19.9998C20.7998 9.19999 21.3332 8.66666 21.3332 7.86666ZM27.9998 14.5333H19.9998C19.1998 14.5333 18.6665 15.0667 18.6665 15.8667C18.6665 16.6667 19.1998 17.2 19.9998 17.2H22.6665V23.8667C22.6665 24.6667 23.1998 25.2 23.9998 25.2C24.7998 25.2 25.3332 24.6667 25.3332 23.8667V17.2H27.9998C28.7998 17.2 29.3332 16.6667 29.3332 15.8667C29.3332 15.0667 28.7998 14.5333 27.9998 14.5333Z" fill="#0061FF"/>
</svg>
