<svg width="16" height="16" viewBox="0 0 16 16" fill="none" xmlns="http://www.w3.org/2000/svg">
<path d="M14.2532 14.6134C14.4161 14.5457 14.5455 14.4163 14.6132 14.2534C14.6473 14.1732 14.6655 14.0872 14.6665 14L14.6665 10C14.6665 9.82323 14.5963 9.65366 14.4712 9.52864C14.3462 9.40361 14.1766 9.33337 13.9998 9.33337C13.823 9.33337 13.6535 9.40361 13.5284 9.52864C13.4034 9.65366 13.3332 9.82323 13.3332 10L13.3332 12.3934L3.6065 2.66671L5.99984 2.66671C6.17665 2.66671 6.34622 2.59647 6.47124 2.47144C6.59627 2.34642 6.6665 2.17685 6.6665 2.00004C6.6665 1.82323 6.59627 1.65366 6.47124 1.52864C6.34622 1.40361 6.17665 1.33337 5.99984 1.33337L1.99984 1.33337C1.91272 1.33443 1.82665 1.35255 1.7465 1.38671C1.5836 1.45436 1.45415 1.58381 1.3865 1.74671C1.35234 1.82685 1.33422 1.91292 1.33317 2.00004L1.33317 6.00004C1.33317 6.17685 1.40341 6.34642 1.52843 6.47144C1.65346 6.59647 1.82303 6.66671 1.99984 6.66671C2.17665 6.66671 2.34622 6.59647 2.47124 6.47144C2.59627 6.34642 2.6665 6.17685 2.6665 6.00004L2.6665 3.60671L12.3932 13.3334L9.99984 13.3334C9.82303 13.3334 9.65346 13.4036 9.52843 13.5286C9.40341 13.6537 9.33317 13.8232 9.33317 14C9.33317 14.1769 9.40341 14.3464 9.52843 14.4714C9.65346 14.5965 9.82303 14.6667 9.99984 14.6667L13.9998 14.6667C14.087 14.6657 14.173 14.6475 14.2532 14.6134Z" fill="#F8F9FA"/>
</svg>
