<svg width="30" height="30" viewBox="0 0 30 30" fill="none" xmlns="http://www.w3.org/2000/svg">
<path fill-rule="evenodd" clip-rule="evenodd" d="M11.875 6.25C11.875 6.91304 11.6116 7.54893 11.1428 8.01777C10.6739 8.48661 10.038 8.75 9.375 8.75C8.71196 8.75 8.07607 8.48661 7.60723 8.01777C7.13839 7.54893 6.875 6.91304 6.875 6.25C6.875 5.58696 7.13839 4.95107 7.60723 4.48223C8.07607 4.01339 8.71196 3.75 9.375 3.75C10.038 3.75 10.6739 4.01339 11.1428 4.48223C11.6116 4.95107 11.875 5.58696 11.875 6.25ZM9.375 17.5C10.038 17.5 10.6739 17.2366 11.1428 16.7678C11.6116 16.2989 11.875 15.663 11.875 15C11.875 14.337 11.6116 13.7011 11.1428 13.2322C10.6739 12.7634 10.038 12.5 9.375 12.5C8.71196 12.5 8.07607 12.7634 7.60723 13.2322C7.13839 13.7011 6.875 14.337 6.875 15C6.875 15.663 7.13839 16.2989 7.60723 16.7678C8.07607 17.2366 8.71196 17.5 9.375 17.5ZM9.375 26.25C10.038 26.25 10.6739 25.9866 11.1428 25.5178C11.6116 25.0489 11.875 24.413 11.875 23.75C11.875 23.087 11.6116 22.4511 11.1428 21.9822C10.6739 21.5134 10.038 21.25 9.375 21.25C8.71196 21.25 8.07607 21.5134 7.60723 21.9822C7.13839 22.4511 6.875 23.087 6.875 23.75C6.875 24.413 7.13839 25.0489 7.60723 25.5178C8.07607 25.9866 8.71196 26.25 9.375 26.25ZM23.125 6.25C23.125 6.91304 22.8616 7.54893 22.3928 8.01777C21.9239 8.48661 21.288 8.75 20.625 8.75C19.962 8.75 19.3261 8.48661 18.8572 8.01777C18.3884 7.54893 18.125 6.91304 18.125 6.25C18.125 5.58696 18.3884 4.95107 18.8572 4.48223C19.3261 4.01339 19.962 3.75 20.625 3.75C21.288 3.75 21.9239 4.01339 22.3928 4.48223C22.8616 4.95107 23.125 5.58696 23.125 6.25ZM20.625 17.5C21.288 17.5 21.9239 17.2366 22.3928 16.7678C22.8616 16.2989 23.125 15.663 23.125 15C23.125 14.337 22.8616 13.7011 22.3928 13.2322C21.9239 12.7634 21.288 12.5 20.625 12.5C19.962 12.5 19.3261 12.7634 18.8572 13.2322C18.3884 13.7011 18.125 14.337 18.125 15C18.125 15.663 18.3884 16.2989 18.8572 16.7678C19.3261 17.2366 19.962 17.5 20.625 17.5ZM20.625 26.25C21.288 26.25 21.9239 25.9866 22.3928 25.5178C22.8616 25.0489 23.125 24.413 23.125 23.75C23.125 23.087 22.8616 22.4511 22.3928 21.9822C21.9239 21.5134 21.288 21.25 20.625 21.25C19.962 21.25 19.3261 21.5134 18.8572 21.9822C18.3884 22.4511 18.125 23.087 18.125 23.75C18.125 24.413 18.3884 25.0489 18.8572 25.5178C19.3261 25.9866 19.962 26.25 20.625 26.25Z" fill="#FAFCFF"/>
</svg>
