<svg width="26" height="26" viewBox="0 0 26 26" fill="none" xmlns="http://www.w3.org/2000/svg">
<path d="M21.6668 9.68499C21.6555 9.58547 21.6338 9.48742 21.6018 9.39249V9.29499C21.5497 9.1836 21.4803 9.08121 21.396 8.99166L14.896 2.49166C14.8064 2.40739 14.7041 2.33791 14.5927 2.28582H14.4843C14.379 2.22949 14.2658 2.18932 14.1485 2.16666H7.5835C6.72154 2.16666 5.89489 2.50907 5.2854 3.11856C4.67591 3.72805 4.3335 4.5547 4.3335 5.41666V20.5833C4.3335 21.4453 4.67591 22.2719 5.2854 22.8814C5.89489 23.4909 6.72154 23.8333 7.5835 23.8333H18.4168C19.2788 23.8333 20.1054 23.4909 20.7149 22.8814C21.3244 22.2719 21.6668 21.4453 21.6668 20.5833V9.74999C21.6668 9.74999 21.6668 9.74999 21.6668 9.68499ZM15.1668 5.86082L17.9727 8.66666H16.2502C15.9628 8.66666 15.6873 8.55252 15.4841 8.34936C15.281 8.14619 15.1668 7.87064 15.1668 7.58332V5.86082ZM19.5002 20.5833C19.5002 20.8706 19.386 21.1462 19.1829 21.3494C18.9797 21.5525 18.7041 21.6667 18.4168 21.6667H7.5835C7.29618 21.6667 7.02063 21.5525 6.81746 21.3494C6.6143 21.1462 6.50016 20.8706 6.50016 20.5833V5.41666C6.50016 5.12934 6.6143 4.85379 6.81746 4.65062C7.02063 4.44746 7.29618 4.33332 7.5835 4.33332H13.0002V7.58332C13.0002 8.44528 13.3426 9.27193 13.9521 9.88142C14.5616 10.4909 15.3882 10.8333 16.2502 10.8333H19.5002V20.5833ZM14.3977 15.4808L14.0835 15.8058V13C14.0835 12.7127 13.9694 12.4371 13.7662 12.234C13.563 12.0308 13.2875 11.9167 13.0002 11.9167C12.7128 11.9167 12.4373 12.0308 12.2341 12.234C12.031 12.4371 11.9168 12.7127 11.9168 13V15.8058L11.6027 15.4808C11.3987 15.2768 11.122 15.1622 10.8335 15.1622C10.545 15.1622 10.2683 15.2768 10.0643 15.4808C9.86033 15.6848 9.74573 15.9615 9.74573 16.25C9.74573 16.5385 9.86033 16.8152 10.0643 17.0192L12.231 19.1858C12.334 19.2845 12.4555 19.3618 12.5885 19.4133C12.7182 19.4706 12.8584 19.5002 13.0002 19.5002C13.1419 19.5002 13.2822 19.4706 13.4118 19.4133C13.5448 19.3618 13.6663 19.2845 13.7693 19.1858L15.936 17.0192C16.14 16.8152 16.2546 16.5385 16.2546 16.25C16.2546 15.9615 16.14 15.6848 15.936 15.4808C15.732 15.2768 15.4553 15.1622 15.1668 15.1622C14.8783 15.1622 14.6017 15.2768 14.3977 15.4808Z" fill="#0061FF"/>
</svg>
