<svg width="32" height="32" viewBox="0 0 32 32" fill="none" xmlns="http://www.w3.org/2000/svg">
<path d="M25.3335 21.3334H24.0002V9.33337C24.0002 8.53337 23.4668 8.00004 22.6668 8.00004H10.6668V6.66671C10.6668 5.86671 10.1335 5.33337 9.3335 5.33337C8.5335 5.33337 8.00016 5.86671 8.00016 6.66671V8.00004H6.66683C5.86683 8.00004 5.3335 8.53337 5.3335 9.33337C5.3335 10.1334 5.86683 10.6667 6.66683 10.6667H8.00016V22.6667C8.00016 23.4667 8.5335 24 9.3335 24H21.3335V25.3334C21.3335 26.1334 21.8668 26.6667 22.6668 26.6667C23.4668 26.6667 24.0002 26.1334 24.0002 25.3334V24H25.3335C26.1335 24 26.6668 23.4667 26.6668 22.6667C26.6668 21.8667 26.1335 21.3334 25.3335 21.3334ZM21.3335 21.3334H10.6668V10.6667H21.3335V21.3334Z" fill="#75839D"/>
</svg>
