<svg width="50" height="50" viewBox="0 0 50 50" fill="none" xmlns="http://www.w3.org/2000/svg">
<path d="M43.7501 29.1666C42.5001 29.1666 41.6667 30 41.6667 31.25V39.5833C41.6667 40.8333 40.8334 41.6666 39.5834 41.6666H10.4167C9.16675 41.6666 8.33341 40.8333 8.33341 39.5833V31.25C8.33341 30 7.50008 29.1666 6.25008 29.1666C5.00008 29.1666 4.16675 30 4.16675 31.25V39.5833C4.16675 43.125 6.87508 45.8333 10.4167 45.8333H39.5834C43.1251 45.8333 45.8334 43.125 45.8334 39.5833V31.25C45.8334 30 45.0001 29.1666 43.7501 29.1666ZM18.1251 16.0416L22.9167 11.25V31.25C22.9167 32.5 23.7501 33.3333 25.0001 33.3333C26.2501 33.3333 27.0834 32.5 27.0834 31.25V11.25L31.8751 16.0416C32.7084 16.875 33.9584 16.875 34.7917 16.0416C35.6251 15.2083 35.6251 13.9583 34.7917 13.125L26.4584 4.79163C25.6251 3.95829 24.3751 3.95829 23.5417 4.79163L15.2084 13.125C14.3751 13.9583 14.3751 15.2083 15.2084 16.0416C16.0417 16.875 17.2917 16.875 18.1251 16.0416Z" fill="#0061FF"/>
</svg>
