<svg width="71" height="71" viewBox="0 0 71 71" fill="none" xmlns="http://www.w3.org/2000/svg">
<path d="M41.4167 0V14.7798C41.4167 19.393 44.9364 23.1841 49.4369 23.6141L50.2917 23.6548H65.0833V30.0696C68.2652 31.1942 70.6143 34.0818 70.9568 37.5587L71 38.4396V62.125C71 66.7386 67.4801 70.5294 62.9797 70.9594L62.125 71H8.875C4.26178 71 0.470676 67.4806 0.0406265 62.9798L0 62.125V38.4396C0 34.8726 2.10429 31.7971 5.13922 30.3868L5.91667 30.0696V8.875C5.91667 4.26184 9.4364 0.470682 13.9369 0.0406265L14.7917 0H41.4167ZM62.125 35.4812H8.875C7.24117 35.4812 5.91667 36.8057 5.91667 38.4396V62.1249C5.91667 63.7591 7.24117 65.0833 8.875 65.0833H62.125C63.7586 65.0833 65.0833 63.7591 65.0833 62.1249V38.4396C65.0833 36.8057 63.7586 35.4812 62.125 35.4812ZM19.72 41.4228C23.5327 41.4228 26.6236 44.5137 26.6236 48.3267C26.6236 51.8852 23.9311 54.8144 20.4722 55.1892L19.72 55.2297H17.7486V56.2148C17.7486 57.8484 16.4241 59.1731 14.7902 59.1731C13.3379 59.1731 12.1301 58.1264 11.8796 56.7465L11.8319 56.2148V44.3812C11.8319 42.9289 12.8784 41.721 14.2585 41.4705L14.7902 41.4228H19.72ZM35.4985 41.4228C40.4 41.4228 44.3735 45.3963 44.3735 50.2981C44.3735 54.9112 40.8537 58.7024 36.3532 59.1325L35.4985 59.1731H32.5316C31.0793 59.1731 29.8714 58.1264 29.6209 56.7465L29.5732 56.2148V44.3812C29.5732 42.9289 30.6197 41.721 31.9998 41.4705L32.5316 41.4228H35.4985ZM56.2012 41.4228C57.8348 41.4228 59.1596 42.7473 59.1596 44.3812C59.1596 46.015 57.8348 47.3398 56.2012 47.3398H53.2488L53.2465 49.3183H56.2012C57.8348 49.3183 59.1596 50.6431 59.1596 52.2766C59.1596 53.9108 57.8348 55.235 56.2012 55.235H53.25L53.253 56.2071C53.2571 57.8407 51.9359 59.169 50.3017 59.1725C48.6681 59.1767 47.3404 57.8561 47.3363 56.2219L47.3261 52.2731L47.3363 44.3774C47.3381 42.7451 48.6622 41.4228 50.2946 41.4228H56.2012ZM35.4985 47.3398L35.4899 53.2565C37.1323 53.2565 38.4568 51.9317 38.4568 50.2981C38.4568 48.6639 37.1323 47.3398 35.4985 47.3398ZM19.72 47.3398H17.7486V49.313H19.72C20.2651 49.313 20.7069 48.8716 20.7069 48.3267C20.7069 47.8903 20.4241 47.5205 20.0319 47.39L19.72 47.3398ZM47.3333 1.74843L63.3415 17.7381H50.2917C48.6581 17.7381 47.3333 16.4136 47.3333 14.7798V1.74843Z" fill="#75839D"/>
</svg>
