<svg width="17" height="17" viewBox="0 0 17 17" fill="none" xmlns="http://www.w3.org/2000/svg">
<path d="M13.2534 5.10704C13.1875 5.04065 13.1092 4.98796 13.0229 4.952C12.9366 4.91603 12.844 4.89752 12.7505 4.89752C12.657 4.89752 12.5644 4.91603 12.4781 4.952C12.3917 4.98796 12.3134 5.04065 12.2476 5.10704L6.9705 10.3912L4.75343 8.16703C4.68506 8.10098 4.60435 8.04905 4.51591 8.0142C4.42747 7.97935 4.33303 7.96226 4.23799 7.9639C4.14295 7.96554 4.04916 7.98589 3.96198 8.02378C3.8748 8.06168 3.79593 8.11637 3.72989 8.18474C3.66384 8.2531 3.61191 8.33381 3.57706 8.42225C3.54221 8.51069 3.52512 8.60513 3.52676 8.70017C3.52841 8.79522 3.54875 8.88901 3.58665 8.97619C3.62454 9.06337 3.67923 9.14223 3.7476 9.20827L6.46758 11.9283C6.53343 11.9946 6.61177 12.0473 6.69809 12.0833C6.78441 12.1193 6.87699 12.1378 6.9705 12.1378C7.06401 12.1378 7.15659 12.1193 7.24291 12.0833C7.32922 12.0473 7.40756 11.9946 7.47341 11.9283L13.2534 6.14829C13.3253 6.08196 13.3827 6.00146 13.4219 5.91185C13.4612 5.82225 13.4814 5.72549 13.4814 5.62767C13.4814 5.52984 13.4612 5.43308 13.4219 5.34348C13.3827 5.25388 13.3253 5.17337 13.2534 5.10704Z" fill="white"/>
</svg>
